# xmcd
#
# Track frame offsets:
#	182
#	9627
#	24577
#	41287
#	54692
#	75765
#	87107
#	99270
#	115447
#	125790
#	140175
#	154502
#	163905
#	174345
#
# Disc length: 2508 seconds
#
# Revision: 0
# Processed by: cddbd v1.5.2PL0 Copyright (c) Steve Scherf et al.
# Submitted via: audiograbber 1.83.01
#
DISCID=ab09ca0e
DTITLE=Paul Orta - Good Night, Bueno Noche, Bonne Nuit
DYEAR=1993
DGENRE=Blues
TTITLE0=The Things I'd Do For You
TTITLE1=This Traffic (Can Make You Fuss N Fight)
TTITLE2=You Were My Lovebird
TTITLE3=I Believe
TTITLE4=Blues In D
TTITLE5=Boogie Thing
TTITLE6=Flip, Flop, Fly
TTITLE7=Fine, Fine, Frame
TTITLE8=Little Bitty Baby
TTITLE9=Nine Below Zero
TTITLE10=You Know I Love
TTITLE11=Wonderful Time
TTITLE12=Improvised Blues
TTITLE13=She's My Baby
EXTD=
EXTT0=
EXTT1=
EXTT2=
EXTT3=
EXTT4=
EXTT5=
EXTT6=
EXTT7=
EXTT8=
EXTT9=
EXTT10=
EXTT11=
EXTT12=
EXTT13=
PLAYORDER=
